<?xml version="1.0" encoding="utf-8"?>
<!-- Generator: Adobe Illustrator 27.7.0, SVG Export Plug-In . SVG Version: 6.00 Build 0)  -->
<svg version="1.1" id="Layer_1" xmlns="http://www.w3.org/2000/svg" xmlns:xlink="http://www.w3.org/1999/xlink" x="0px" y="0px"
	 viewBox="0 0 448 512" style="enable-background:new 0 0 448 512;" xml:space="preserve">
<style type="text/css">
	.st0{fill:#AADEFF;}
</style>
<path class="st0" d="M96,0C43,0,0,43,0,96v320c0,53,43,96,96,96h288h32c17.7,0,32-14.3,32-32s-14.3-32-32-32v-64
	c17.7,0,32-14.3,32-32V32c0-17.7-14.3-32-32-32h-32H96z M96,384h256v64H96c-17.7,0-32-14.3-32-32S78.3,384,96,384z M128,144
	c0-8.8,7.2-16,16-16h192c8.8,0,16,7.2,16,16s-7.2,16-16,16H144C135.2,160,128,152.8,128,144z M144,192h192c8.8,0,16,7.2,16,16
	s-7.2,16-16,16H144c-8.8,0-16-7.2-16-16S135.2,192,144,192z"/>
</svg>
